<svg width="7" height="11" viewBox="0 0 7 11" fill="none" xmlns="http://www.w3.org/2000/svg">
    <path d="M6.00409 5.04376C6.00485 5.17537 5.97963 5.30583 5.92986 5.42767C5.8801 5.5495 5.80677 5.66032 5.71409 5.75376L1.71409 9.75376C1.62085 9.847 1.51016 9.92096 1.38834 9.97142C1.26652 10.0219 1.13595 10.0479 1.00409 10.0479C0.872232 10.0479 0.741664 10.0219 0.619842 9.97142C0.49802 9.92096 0.38733 9.847 0.294091 9.75376C0.200853 9.66052 0.126892 9.54983 0.0764313 9.42801C0.0259709 9.30619 -1.96485e-09 9.17562 0 9.04376C1.96486e-09 8.9119 0.0259709 8.78133 0.0764313 8.65951C0.126892 8.53769 0.200853 8.427 0.294091 8.33376L3.60409 5.04376L0.424091 1.74376C0.321802 1.65177 0.239593 1.53966 0.182607 1.41445C0.125621 1.28924 0.0950833 1.15361 0.0929041 1.01606C0.0907248 0.878505 0.11695 0.74198 0.169941 0.615025C0.222932 0.48807 0.301549 0.373415 0.400873 0.278229C0.500198 0.183043 0.618093 0.109374 0.747188 0.0618305C0.876282 0.014287 1.0138 -0.00610733 1.15113 0.0019207C1.28847 0.00994873 1.42267 0.0462275 1.54535 0.108488C1.66802 0.170749 1.77653 0.25765 1.86409 0.36376L5.72409 4.36376C5.90041 4.54663 6.00052 4.78976 6.00409 5.04376Z" fill="#2E3262"/>
</svg>
