<svg width="31" height="28" viewBox="0 0 31 28" fill="none" xmlns="http://www.w3.org/2000/svg">
    <path d="M1.5653 19.9021H1.56518C1.34786 19.9021 1.14174 19.8154 0.989293 19.6637C0.835512 19.5108 0.75 19.3033 0.75 19.0869V8.34851C0.75 7.89789 1.11456 7.53333 1.56518 7.53333H7.48374L15.0716 1.11419C15.0716 1.11416 15.0716 1.11414 15.0717 1.11411C15.1035 1.08702 15.1397 1.06051 15.1792 1.03724C15.1796 1.037 15.18 1.03675 15.1804 1.03651L15.307 1.25211C15.849 0.925435 16.5017 0.915262 17.0534 1.22724L1.5653 19.9021ZM1.5653 19.9021L7.46439 19.8993M1.5653 19.9021L7.46439 19.8993M16.2011 27C15.8931 27 15.585 26.9158 15.307 26.7479C15.2747 26.7287 15.2442 26.7061 15.216 26.6801L7.56174 19.6493L16.2011 27ZM16.2011 27C16.4933 26.9994 16.7849 26.9243 17.0534 26.7728L16.2011 27ZM7.46439 19.8993L15.0467 26.8641C15.0875 26.9016 15.1315 26.9343 15.1778 26.962C15.4945 27.1531 15.8471 27.25 16.2011 27.25H16.2016C16.5368 27.2494 16.8706 27.163 17.1762 26.9905L17.1763 26.9905C17.8205 26.6268 18.2054 25.9608 18.2054 25.2157V2.78488C18.2054 2.03976 17.8205 1.37389 17.1764 1.00963L7.46439 19.8993ZM16.575 25.2157C16.575 25.3726 16.498 25.5018 16.375 25.5716C16.3209 25.6019 16.207 25.6485 16.0731 25.5937L8.59734 18.7262V16.261C8.59734 15.8104 8.23277 15.4458 7.78216 15.4458C7.33154 15.4458 6.96698 15.8104 6.96698 16.261V18.2696L2.38036 18.2716V9.16368H6.96698V11.1744C6.96698 11.625 7.33154 11.9896 7.78216 11.9896C8.23277 11.9896 8.59734 11.625 8.59734 11.1744V8.72672L16.0615 2.41239C16.2021 2.34929 16.3202 2.39864 16.375 2.42953L16.4978 2.21178L16.3746 2.42932C16.498 2.49918 16.575 2.62856 16.575 2.78488V25.2157Z" fill="white" stroke="white" stroke-width="0.5"/>
    <path d="M23.0075 3.05492L23.0078 3.055C27.5813 4.60802 30.6542 8.89278 30.6536 13.7187L23.0075 3.05492ZM23.0075 3.05492C22.5813 2.91067 22.1185 3.13883 21.9735 3.56498L21.9734 3.56524M23.0075 3.05492L21.9734 3.56524M21.9734 3.56524C21.8291 3.99095 22.0573 4.45436 22.4834 4.59941L22.4836 4.59946M21.9734 3.56524L22.4836 4.59946M22.4836 4.59946C26.3957 5.92774 29.0238 9.59224 29.0238 13.7182C29.0238 17.8403 26.4006 21.5054 22.4963 22.8375C22.0706 22.9827 21.8425 23.4458 21.9883 23.8727L21.9883 23.8729M22.4836 4.59946L21.9883 23.8729M21.9883 23.8729C22.1041 24.2113 22.4205 24.4245 22.7595 24.4245M21.9883 23.8729L22.7595 24.4245M22.7595 24.4245C22.8465 24.4245 22.9357 24.4107 23.0235 24.3804M22.7595 24.4245L23.0235 24.3804M23.0235 24.3804C27.5869 22.8237 30.6536 18.5391 30.6536 13.7188L23.0235 24.3804Z" fill="white" stroke="white" stroke-width="0.5"/>
    <path d="M19.8769 6.15187L19.8769 6.15187L19.8756 6.1515C19.4431 6.02897 18.9932 6.27528 18.8676 6.7091L18.8676 6.70927C18.7429 7.1411 18.9913 7.59358 19.4249 7.71848C22.0812 8.48618 23.9376 10.9542 23.9376 13.7179C23.9376 16.4815 22.0812 18.9496 19.4249 19.7173C18.9922 19.8421 18.7428 20.2944 18.8676 20.7265L18.8677 20.7268C18.9712 21.0838 19.2965 21.3158 19.6509 21.3158C19.7265 21.3158 19.802 21.3051 19.8754 21.2843L19.8769 21.2839C23.2285 20.3148 25.5674 17.2045 25.5674 13.7179C25.5674 10.2312 23.2279 7.12097 19.8769 6.15187Z" fill="white" stroke="white" stroke-width="0.5"/>
</svg>
