<svg width="17" height="17" viewBox="0 0 17 17" fill="none" xmlns="http://www.w3.org/2000/svg">
<path d="M15.0991 7.53724C15.8392 7.53724 16.4513 6.93258 16.3199 6.20424C16.2249 5.67806 16.0737 5.16229 15.8681 4.66594C15.491 3.75563 14.9383 2.9285 14.2416 2.23177C13.5449 1.53505 12.7178 0.98238 11.8075 0.605316C11.3111 0.399723 10.7953 0.248532 10.2692 0.15354C9.54082 0.0220494 8.93616 0.634166 8.93616 1.37429L8.93616 6.19713C8.93616 6.93725 9.53615 7.53724 10.2763 7.53724H15.0991Z" fill="url(#paint0_linear)"/>
<path d="M15.0991 8.53423C15.8392 8.53423 16.4514 9.13889 16.3198 9.86722C16.2249 10.393 16.0738 10.9084 15.8683 11.4043C15.4914 12.3143 14.939 13.1411 14.2425 13.8375C13.5461 14.5339 12.7193 15.0864 11.8094 15.4633C11.3134 15.6687 10.798 15.8198 10.2723 15.9148C9.54394 16.0463 8.93928 15.4342 8.93928 14.6941L8.93928 9.87433C8.93928 9.13421 9.53927 8.53423 10.2794 8.53423H15.0991Z" fill="url(#paint1_linear)"/>
<path d="M1.77955 8.53112C1.03943 8.53112 0.427313 9.13578 0.558804 9.86412C0.653795 10.3903 0.804986 10.9061 1.01058 11.4024C1.38764 12.3127 1.94031 13.1399 2.63704 13.8366C3.33376 14.5333 4.16089 15.086 5.0712 15.463C5.56755 15.6686 6.08332 15.8198 6.6095 15.9148C7.33784 16.0463 7.9425 15.4342 7.9425 14.6941L7.9425 9.87123C7.9425 9.13111 7.34251 8.53112 6.60239 8.53112H1.77955Z" fill="url(#paint2_linear)"/>
<path d="M1.77955 7.53724C1.03943 7.53724 0.427313 6.93258 0.558804 6.20424C0.653795 5.67806 0.804986 5.16229 1.01058 4.66594C1.38764 3.75563 1.94031 2.9285 2.63704 2.23177C3.33376 1.53505 4.16089 0.98238 5.0712 0.605316C5.56755 0.399723 6.08332 0.248532 6.6095 0.15354C7.33784 0.0220494 7.9425 0.634166 7.9425 1.37429L7.9425 6.19713C7.9425 6.93725 7.34251 7.53724 6.60239 7.53724H1.77955Z" fill="url(#paint3_linear)"/>
<defs>
<linearGradient id="paint0_linear" x1="13.8059" y1="1.9675" x2="8.09891" y2="9.90639" gradientUnits="userSpaceOnUse">
<stop stop-color="#C9C100"/>
<stop offset="0.935312" stop-color="#FFF735"/>
</linearGradient>
<linearGradient id="paint1_linear" x1="13.7737" y1="16.0342" x2="12.9963" y2="8.10338" gradientUnits="userSpaceOnUse">
<stop stop-color="#1C36C9"/>
<stop offset="1" stop-color="#518EFE"/>
</linearGradient>
<linearGradient id="paint2_linear" x1="2.50611" y1="14.0675" x2="6.70608" y2="10.1676" gradientUnits="userSpaceOnUse">
<stop stop-color="#10884F"/>
<stop offset="1" stop-color="#3AE593"/>
</linearGradient>
<linearGradient id="paint3_linear" x1="0.439454" y1="2.43416" x2="6.07275" y2="6.30081" gradientUnits="userSpaceOnUse">
<stop offset="0.0686415" stop-color="#AA122D"/>
<stop offset="1" stop-color="#D92B4B"/>
</linearGradient>
</defs>
</svg>
