<svg width="14" height="14" viewBox="0 0 14 14" fill="none" xmlns="http://www.w3.org/2000/svg">
<path d="M11.6621 3.96966L8.6321 6.99993L11.6621 10.0301C12.1128 10.4809 12.1128 11.2113 11.6621 11.6621C11.4369 11.8873 11.1416 12 10.8466 12C10.551 12 10.2557 11.8875 10.0307 11.6621L7.00006 8.63165L3.96966 11.6621C3.7445 11.8873 3.44924 12 3.15388 12C2.85862 12 2.56355 11.8875 2.33819 11.6621C1.8875 11.2114 1.8875 10.4811 2.33819 10.03L5.36807 6.9999L2.33802 3.96966C1.88733 3.51896 1.88733 2.78845 2.33802 2.33776C2.78863 1.88741 3.51871 1.88741 3.96949 2.33776L7.00003 5.36804L10.0303 2.33776C10.4812 1.88741 11.2114 1.88741 11.6619 2.33776C12.1128 2.78845 12.1128 3.51896 11.6621 3.96966Z" fill="#B7B8C7"/>
</svg>
