<svg width="16" height="16" viewBox="0 0 16 16" fill="none" xmlns="http://www.w3.org/2000/svg">
<path fill-rule="evenodd" clip-rule="evenodd" d="M-0.000244141 3.45C-0.000244141 1.54462 1.54437 0 3.44976 0H12.5498C14.4551 0 15.9998 1.54462 15.9998 3.45V12.55C15.9998 14.4554 14.4551 16 12.5498 16H3.44976C1.54437 16 -0.000244141 14.4554 -0.000244141 12.55V3.45ZM11.4282 8.00015C11.4282 9.8937 9.89321 11.4287 7.99966 11.4287C6.10611 11.4287 4.57109 9.8937 4.57109 8.00015C4.57109 6.1066 6.10611 4.57158 7.99966 4.57158C9.89321 4.57158 11.4282 6.1066 11.4282 8.00015ZM12.5709 4.5714C13.2021 4.5714 13.7138 4.05972 13.7138 3.42854C13.7138 2.79736 13.2021 2.28568 12.5709 2.28568C11.9397 2.28568 11.428 2.79736 11.428 3.42854C11.428 4.05972 11.9397 4.5714 12.5709 4.5714Z" fill="#3A5EE5"/>
</svg>
