<svg width="16" height="16" viewBox="0 0 16 16" fill="none" xmlns="http://www.w3.org/2000/svg">
<g clip-path="url(#clip0_1_203)">
<path d="M15.9958 16V15.9993H15.9998V10.1313C15.9998 7.26065 15.3818 5.04932 12.0258 5.04932C10.4125 5.04932 9.32985 5.93465 8.88785 6.77398H8.84118V5.31732H5.65918V15.9993H8.97251V10.71C8.97251 9.31732 9.23651 7.97065 10.9612 7.97065C12.6605 7.97065 12.6858 9.55998 12.6858 10.7993V16H15.9958Z" fill="#3A5EE5"/>
<path d="M0.263916 5.31787H3.58125V15.9999H0.263916V5.31787Z" fill="#3A5EE5"/>
<path d="M1.92109 0C0.860423 0 -0.000244141 0.860667 -0.000244141 1.92133C-0.000244141 2.982 0.860423 3.86067 1.92109 3.86067C2.98176 3.86067 3.84242 2.982 3.84242 1.92133C3.84176 0.860667 2.98109 0 1.92109 0V0Z" fill="#3A5EE5"/>
</g>
<defs>
<clipPath id="clip0_1_203">
<rect width="16" height="16" fill="white" transform="translate(-0.000244141)"/>
</clipPath>
</defs>
</svg>
