<svg width="30" height="30" viewBox="0 0 30 30" fill="none" xmlns="http://www.w3.org/2000/svg">
    <path d="M14.9999 0C9.17543 0 4.43701 4.81289 4.43701 10.7285V19.2718C4.43701 25.1874 9.17543 30 14.9999 30C20.8241 30 25.5629 25.202 25.5629 19.3046V10.7285C25.5629 4.81289 20.8241 0 14.9999 0ZM23.5761 19.3046C23.5761 24.1066 19.729 28.0133 14.9999 28.0133C10.2711 28.0133 6.42381 24.0918 6.42381 19.2715V10.7285C6.42381 5.90824 10.2711 1.98674 14.9999 1.98674C19.7291 1.98674 23.5761 5.90824 23.5761 10.7285V19.3046Z" fill="#3A5EE5"/>
    <path d="M14.9997 8.21191C14.4511 8.21191 14.0063 8.65664 14.0063 9.20531V12.6821C14.0063 13.2308 14.4511 13.6755 14.9997 13.6755C15.5484 13.6755 15.9931 13.2308 15.9931 12.6821V9.20531C15.9931 8.65664 15.5484 8.21191 14.9997 8.21191Z" fill="#3A5EE5"/>
</svg>
