<svg width="40" height="40" viewBox="0 0 40 40" fill="none" xmlns="http://www.w3.org/2000/svg">
<path d="M20 0C12.234 0 5.91614 6.41719 5.91614 14.3046V25.6958C5.91614 33.5832 12.234 40 20 40C27.7656 40 34.084 33.6027 34.084 25.7395V14.3046C34.084 6.41719 27.7656 0 20 0ZM31.4349 25.7395C31.4349 32.1422 26.3055 37.351 20 37.351C13.695 37.351 8.5652 32.1223 8.5652 25.6954V14.3046C8.5652 7.87766 13.695 2.64898 20 2.64898C26.3056 2.64898 31.4349 7.87766 31.4349 14.3046V25.7395Z" fill="white"/>
<path d="M19.9999 10.9493C19.2684 10.9493 18.6754 11.5423 18.6754 12.2739V16.9097C18.6754 17.6412 19.2684 18.2342 19.9999 18.2342C20.7315 18.2342 21.3245 17.6412 21.3245 16.9097V12.2739C21.3245 11.5423 20.7315 10.9493 19.9999 10.9493Z" fill="white"/>
</svg>
