<svg width="129" height="112" viewBox="0 0 129 112" fill="none" xmlns="http://www.w3.org/2000/svg">
<path d="M101 15L114.856 33.75H87.1436L101 15Z" fill="#AB2132"/>
<g filter="url(#filter0_d)">
<path d="M12 20C12 17.2386 14.2386 15 17 15H101V81.3451C101 84.6749 97.8063 87.0744 94.6081 86.1474L56.5 75.1025L18.3919 86.1474C15.1937 87.0744 12 84.6749 12 81.3451V20Z" fill="#E53A4F"/>
</g>
<path d="M31.8594 51.293C31.1758 51.293 30.4434 51.2279 29.6621 51.0977C28.8874 50.974 28.0703 50.7493 27.2109 50.4238L27.8457 48.1875C28.8223 48.5586 29.7109 48.8027 30.5117 48.9199C30.2904 48.7116 30.0885 48.4642 29.9062 48.1777C29.7305 47.8848 29.6035 47.5755 29.5254 47.25L27.7285 39.291H30.8145L32.5332 47.5527C32.5788 47.7741 32.6309 47.9824 32.6895 48.1777C32.7546 48.373 32.8327 48.5553 32.9238 48.7246C33.4186 48.5228 33.8027 48.207 34.0762 47.7773C34.3561 47.3477 34.4961 46.8073 34.4961 46.1562V39.291H37.5625V46C37.5625 47.1589 37.3216 48.1322 36.8398 48.9199C36.3581 49.7012 35.6875 50.2936 34.8281 50.6973C33.9753 51.0944 32.9857 51.293 31.8594 51.293ZM40.4141 51V48.6074H45.7363L39.4375 39.291H42.8555L45.2578 43.1191L47.0352 39.291H50.4629L47.0547 45.834L49.6719 49.623V51H40.4141ZM51.4492 51V48.6074H57.1035V43.4414C57.1035 42.263 56.4818 41.6738 55.2383 41.6738H52.0938V39.291H55.4629C56.9473 39.291 58.0996 39.6654 58.9199 40.4141C59.7467 41.1628 60.1602 42.2174 60.1602 43.5781V48.5098L61.5273 48.7148V51H51.4492ZM63.334 51L64.0859 44.4082C64.151 43.8809 64.2845 43.3796 64.4863 42.9043C64.6882 42.429 64.9258 42.0547 65.1992 41.7812C65.2643 41.7227 65.3066 41.6868 65.3262 41.6738V41.625C65.0658 41.6641 64.7565 41.7357 64.3984 41.8398C64.0404 41.944 63.7409 42.0417 63.5 42.1328L62.8457 39.916C63.347 39.7337 63.9102 39.5742 64.5352 39.4375C65.1602 39.2943 65.8014 39.1836 66.459 39.1055C67.123 39.0273 67.7578 38.9883 68.3633 38.9883C70.1406 38.9883 71.4915 39.444 72.416 40.3555C73.3405 41.2604 73.8092 42.5983 73.8223 44.3691V51H68.6953V48.6172H70.7559L70.7461 43.959C70.7461 43.1777 70.5866 42.5723 70.2676 42.1426C69.9551 41.7064 69.5156 41.4883 68.9492 41.4883C68.3958 41.4883 67.9629 41.7064 67.6504 42.1426C67.3379 42.5788 67.1426 43.2038 67.0645 44.0176L66.3613 51H63.334ZM75.6289 51V48.6074H81.2832V43.4414C81.2832 42.263 80.6615 41.6738 79.418 41.6738H76.2734V39.291H79.6426C81.127 39.291 82.2793 39.6654 83.0996 40.4141C83.9264 41.1628 84.3398 42.2174 84.3398 43.5781V48.5098L85.707 48.7148V51H75.6289Z" fill="white"/>
<defs>
<filter id="filter0_d" x="0" y="0" width="129" height="111.348" filterUnits="userSpaceOnUse" color-interpolation-filters="sRGB">
<feFlood flood-opacity="0" result="BackgroundImageFix"/>
<feColorMatrix in="SourceAlpha" type="matrix" values="0 0 0 0 0 0 0 0 0 0 0 0 0 0 0 0 0 0 127 0"/>
<feOffset dx="8" dy="5"/>
<feGaussianBlur stdDeviation="10"/>
<feColorMatrix type="matrix" values="0 0 0 0 0.675 0 0 0 0 0.106875 0 0 0 0 0.176645 0 0 0 0.4 0"/>
<feBlend mode="normal" in2="BackgroundImageFix" result="effect1_dropShadow"/>
<feBlend mode="normal" in="SourceGraphic" in2="effect1_dropShadow" result="shape"/>
</filter>
</defs>
</svg>
