<svg width="29" height="29" viewBox="0 0 29 29" fill="none" xmlns="http://www.w3.org/2000/svg">
<path fill-rule="evenodd" clip-rule="evenodd" d="M14.0306 2.41666C7.61637 2.41666 2.41663 7.50156 2.41663 13.7741C2.41663 20.0466 7.61637 25.1315 14.0306 25.1315C16.7739 25.1315 19.2951 24.2014 21.2823 22.646L25.0572 26.3279L25.1577 26.4125C25.5081 26.6661 26.005 26.6373 26.3221 26.3263C26.671 25.9843 26.6702 25.4305 26.3205 25.0894L22.59 21.4507C24.4868 19.4292 25.6445 16.7339 25.6445 13.7741C25.6445 7.50156 20.4448 2.41666 14.0306 2.41666ZM14.0306 4.16601C19.4568 4.16601 23.8557 8.46769 23.8557 13.7741C23.8557 19.0805 19.4568 23.3822 14.0306 23.3822C8.60432 23.3822 4.20548 19.0805 4.20548 13.7741C4.20548 8.46769 8.60432 4.16601 14.0306 4.16601Z" fill="white"/>
</svg>
