<svg width="70" height="80" viewBox="0 0 70 80" fill="none" xmlns="http://www.w3.org/2000/svg">
<g filter="url(#filter0_d)">
<circle r="20" transform="matrix(-1 0 0 1 30 30)" fill="white"/>
</g>
<path d="M25.9959 30.0438C25.9951 30.1754 26.0204 30.3058 26.0701 30.4277C26.1199 30.5495 26.1932 30.6603 26.2859 30.7538L30.2859 34.7538C30.3791 34.847 30.4898 34.921 30.6117 34.9714C30.7335 35.0219 30.864 35.0479 30.9959 35.0479C31.1278 35.0479 31.2583 35.0219 31.3802 34.9714C31.502 34.921 31.6127 34.847 31.7059 34.7538C31.7991 34.6605 31.8731 34.5498 31.9236 34.428C31.974 34.3062 32 34.1756 32 34.0438C32 33.9119 31.974 33.7813 31.9236 33.6595C31.8731 33.5377 31.7991 33.427 31.7059 33.3338L28.3959 30.0438L31.5759 26.7438C31.6782 26.6518 31.7604 26.5397 31.8174 26.4144C31.8744 26.2892 31.9049 26.1536 31.9071 26.0161C31.9093 25.8785 31.8831 25.742 31.8301 25.615C31.7771 25.4881 31.6985 25.3734 31.5991 25.2782C31.4998 25.183 31.3819 25.1094 31.2528 25.0618C31.1237 25.0143 30.9862 24.9939 30.8489 25.0019C30.7115 25.0099 30.5773 25.0462 30.4547 25.1085C30.332 25.1707 30.2235 25.2577 30.1359 25.3638L26.2759 29.3638C26.0996 29.5466 25.9995 29.7898 25.9959 30.0438Z" fill="#2E3262"/>
<defs>
<filter id="filter0_d" x="-10" y="0" width="80" height="80" filterUnits="userSpaceOnUse" color-interpolation-filters="sRGB">
<feFlood flood-opacity="0" result="BackgroundImageFix"/>
<feColorMatrix in="SourceAlpha" type="matrix" values="0 0 0 0 0 0 0 0 0 0 0 0 0 0 0 0 0 0 127 0"/>
<feOffset dy="10"/>
<feGaussianBlur stdDeviation="10"/>
<feColorMatrix type="matrix" values="0 0 0 0 0 0 0 0 0 0.00649999 0 0 0 0 0.1625 0 0 0 0.11 0"/>
<feBlend mode="normal" in2="BackgroundImageFix" result="effect1_dropShadow"/>
<feBlend mode="normal" in="SourceGraphic" in2="effect1_dropShadow" result="shape"/>
</filter>
</defs>
</svg>
