<svg width="23" height="23" viewBox="0 0 23 23" fill="none" xmlns="http://www.w3.org/2000/svg">
    <g opacity="0.3">
        <path d="M21.5769 5.76758C20.2643 5.76758 19.0532 5.33273 18.0807 4.59916C16.9653 3.75822 16.1638 2.52467 15.8808 1.10289C15.8108 0.751601 15.773 0.389082 15.7694 0.0175781H12.0198V10.2634L12.0153 15.8754C12.0153 17.3758 11.0383 18.648 9.68386 19.0954C9.2908 19.2253 8.86629 19.2868 8.42425 19.2626C7.86004 19.2316 7.3313 19.0613 6.87175 18.7864C5.8938 18.2015 5.23076 17.1404 5.21279 15.9267C5.18449 14.0296 6.71812 12.4829 8.61382 12.4829C8.98802 12.4829 9.3474 12.544 9.68386 12.655V9.85457V8.84787C9.32898 8.79531 8.96781 8.76791 8.60259 8.76791C6.52765 8.76791 4.58703 9.63041 3.19984 11.1843C2.15136 12.3585 1.52246 13.8567 1.42543 15.4276C1.2983 17.4913 2.05343 19.453 3.51789 20.9004C3.73306 21.1129 3.95902 21.3101 4.19531 21.492C5.45087 22.4583 6.98586 22.9821 8.60259 22.9821C8.96781 22.9821 9.32898 22.9551 9.68386 22.9026C11.1941 22.6789 12.5876 21.9875 13.6873 20.9004C15.0386 19.5649 15.7852 17.7918 15.7932 15.9046L15.7739 7.52402C16.4186 8.02131 17.1234 8.43279 17.8799 8.75219C19.0564 9.24857 20.3038 9.50014 21.5877 9.49969V6.77697V5.76668C21.5886 5.76758 21.5778 5.76758 21.5769 5.76758Z" fill="white"/>
    </g>
</svg>
