<svg width="23" height="23" viewBox="0 0 23 23" fill="none" xmlns="http://www.w3.org/2000/svg">
<g opacity="0.3">
<path d="M21.8257 6.11039C21.5772 5.18664 20.8489 4.45846 19.9253 4.20972C18.238 3.74805 11.4885 3.74805 11.4885 3.74805C11.4885 3.74805 4.7393 3.74805 3.05197 4.19222C2.14612 4.4407 1.40004 5.18678 1.15156 6.11039C0.70752 7.7976 0.70752 11.2966 0.70752 11.2966C0.70752 11.2966 0.70752 14.8133 1.15156 16.4829C1.4003 17.4065 2.12835 18.1347 3.0521 18.3834C4.75707 18.8452 11.4888 18.8452 11.4888 18.8452C11.4888 18.8452 18.238 18.8452 19.9253 18.4011C20.8491 18.1524 21.5772 17.4243 21.826 16.5006C22.2699 14.8133 22.2699 11.3144 22.2699 11.3144C22.2699 11.3144 22.2877 7.7976 21.8257 6.11039ZM9.33963 14.5292V8.0641L14.9521 11.2966L9.33963 14.5292Z" fill="#2E3262"/>
</g>
</svg>
