<svg width="19" height="19" viewBox="0 0 19 19" fill="none" xmlns="http://www.w3.org/2000/svg">
<g clip-path="url(#clip0_1_209)">
<path d="M17.6607 5.08836C17.4619 4.34936 16.8792 3.76682 16.1403 3.56783C14.7905 3.19849 9.3909 3.19849 9.3909 3.19849C9.3909 3.19849 3.99154 3.19849 2.64167 3.55383C1.91699 3.7526 1.32013 4.34947 1.12135 5.08836C0.766113 6.43813 0.766113 9.23736 0.766113 9.23736C0.766113 9.23736 0.766113 12.0507 1.12135 13.3864C1.32034 14.1252 1.90278 14.7078 2.64178 14.9068C4.00575 15.2762 9.39111 15.2762 9.39111 15.2762C9.39111 15.2762 14.7905 15.2762 16.1403 14.9209C16.8793 14.722 17.4619 14.1395 17.6609 13.4006C18.016 12.0507 18.016 9.25157 18.016 9.25157C18.016 9.25157 18.0302 6.43813 17.6607 5.08836ZM7.6718 11.8234V6.65133L12.1618 9.23736L7.6718 11.8234Z" fill="#3A5EE5"/>
</g>
<defs>
<clipPath id="clip0_1_209">
<rect width="18.4" height="18.4" fill="white" transform="translate(0.199707 0.199951)"/>
</clipPath>
</defs>
</svg>
